<svg width="190" height="300" viewBox="0 0 190 300" fill="none" xmlns="http://www.w3.org/2000/svg">
<path d="M88.7238 187.998C66.5879 172.498 35.6402 178.504 19.6003 201.411C3.56037 224.318 8.50215 255.453 30.6381 270.953C52.7741 286.453 83.7218 280.448 99.7617 257.541C115.802 234.633 110.86 203.498 88.7238 187.998Z" fill="url(#paint0_linear_0_367)"/>
<path d="M125.407 90.6552C103.271 75.1555 72.3233 81.1605 56.2834 104.068C40.2435 126.975 45.1853 158.11 67.3212 173.61C89.4572 189.11 120.405 183.105 136.445 160.198C152.485 137.29 147.543 106.155 125.407 90.6552Z" fill="url(#paint1_linear_0_367)"/>
<path d="M44.8894 28.0648C22.7534 12.565 -8.19419 18.5701 -24.2341 41.4775C-40.2741 64.3849 -35.3323 95.52 -13.1963 111.02C8.93966 126.52 39.8874 120.514 55.9273 97.6071C71.9672 74.6997 67.0254 43.5645 44.8894 28.0648Z" fill="url(#paint2_linear_0_367)"/>
<path d="M4.86955 128.384C-17.3908 112.797 -48.4392 118.731 -64.4792 141.639C-80.5191 164.546 -75.4765 195.752 -53.2162 211.339C-30.9558 226.925 0.0926152 220.991 16.1325 198.084C32.1725 175.176 27.1299 143.97 4.86955 128.384Z" fill="url(#paint3_linear_0_367)"/>
<defs>
<linearGradient id="paint0_linear_0_367" x1="19.5916" y1="201.412" x2="111.697" y2="265.904" gradientUnits="userSpaceOnUse">
<stop stop-color="#28C8D4"/>
<stop offset="0.5" stop-color="#94E4EA"/>
<stop offset="0.75" stop-color="#C9F1F4"/>
<stop offset="0.875" stop-color="#E4F8FA"/>
<stop offset="0.9375" stop-color="#F2FCFC"/>
<stop offset="0.96875" stop-color="#F8FDFE"/>
<stop offset="1" stop-color="white"/>
</linearGradient>
<linearGradient id="paint1_linear_0_367" x1="56.2782" y1="104.064" x2="148.383" y2="168.556" gradientUnits="userSpaceOnUse">
<stop stop-color="#28C8D4"/>
<stop offset="0.5" stop-color="#94E4EA"/>
<stop offset="0.75" stop-color="#C9F1F4"/>
<stop offset="0.875" stop-color="#E4F8FA"/>
<stop offset="0.9375" stop-color="#F2FCFC"/>
<stop offset="1" stop-color="white"/>
</linearGradient>
<linearGradient id="paint2_linear_0_367" x1="-24.2301" y1="41.4795" x2="67.8751" y2="105.972" gradientUnits="userSpaceOnUse">
<stop stop-color="#28C8D4"/>
<stop offset="0.5" stop-color="#94E4EA"/>
<stop offset="0.75" stop-color="#C9F1F4"/>
<stop offset="0.875" stop-color="#E4F8FA"/>
<stop offset="0.9375" stop-color="#F2FCFC"/>
<stop offset="1" stop-color="white"/>
</linearGradient>
<linearGradient id="paint3_linear_0_367" x1="-64.4787" y1="141.646" x2="28.1461" y2="206.502" gradientUnits="userSpaceOnUse">
<stop stop-color="#28C8D4"/>
<stop offset="0.5" stop-color="#94E4EA"/>
<stop offset="0.75" stop-color="#C9F1F4"/>
<stop offset="0.875" stop-color="#E4F8FA"/>
<stop offset="0.9375" stop-color="#F2FCFC"/>
<stop offset="1" stop-color="white"/>
</linearGradient>
</defs>
</svg>
