<svg width="109" height="400" viewBox="0 0 109 400" fill="none" xmlns="http://www.w3.org/2000/svg">
<path d="M297.453 256.165L101.52 143.044C85.8422 133.992 80.4932 113.937 89.5462 98.2571L93.3223 91.7168C102.375 76.0365 122.445 70.6573 138.095 79.6931L334.028 192.815C349.706 201.867 355.055 221.921 346.002 237.602L342.226 244.142C333.201 259.838 313.131 265.217 297.453 256.165Z" fill="url(#paint0_radial_0_373)"/>
<path d="M260.893 319.489L64.9604 206.367C49.2825 197.315 43.9063 177.245 52.9593 161.564L56.7353 155.024C65.7883 139.344 85.8421 133.992 101.52 143.043L297.453 256.165C313.131 265.217 318.507 285.288 309.47 300.94L305.694 307.481C296.625 323.188 276.571 328.54 260.893 319.489Z" fill="url(#paint1_radial_0_373)"/>
<path d="M224.334 382.812L28.4009 269.69C12.7229 260.638 7.34664 240.568 16.3996 224.887L20.1757 218.347C29.2287 202.667 49.2825 197.315 64.9604 206.367L260.893 319.489C276.571 328.54 281.948 348.611 272.91 364.263L269.134 370.804C260.065 386.511 240.012 391.863 224.334 382.812Z" fill="url(#paint2_radial_0_373)"/>
<path d="M297.453 256.165L101.52 143.044C85.8422 133.992 80.4932 113.937 89.5462 98.2571L93.3223 91.7168C102.375 76.0365 122.445 70.6573 138.095 79.6931L334.028 192.815C349.706 201.867 355.055 221.921 346.002 237.602L342.226 244.142C333.201 259.838 313.131 265.217 297.453 256.165Z" fill="url(#paint3_radial_0_373)"/>
<path d="M260.893 319.489L64.9604 206.367C49.2825 197.315 43.9063 177.245 52.9593 161.564L56.7353 155.024C65.7883 139.344 85.8421 133.992 101.52 143.043L297.453 256.165C313.131 265.217 318.507 285.288 309.47 300.94L305.694 307.481C296.625 323.188 276.571 328.54 260.893 319.489Z" fill="url(#paint4_radial_0_373)"/>
<path d="M224.334 382.812L28.4009 269.69C12.7229 260.638 7.34664 240.568 16.3996 224.887L20.1757 218.347C29.2287 202.667 49.2825 197.315 64.9604 206.367L260.893 319.489C276.571 328.54 281.948 348.611 272.91 364.263L269.134 370.804C260.065 386.511 240.012 391.863 224.334 382.812Z" fill="url(#paint5_radial_0_373)"/>
<defs>
<radialGradient id="paint0_radial_0_373" cx="0" cy="0" r="1" gradientUnits="userSpaceOnUse" gradientTransform="translate(217.782 167.957) rotate(-60) scale(57.9824 168.691)">
<stop stop-color="#34A853"/>
<stop offset="0.1004" stop-color="#3DAC5B"/>
<stop offset="0.2647" stop-color="#56B66F"/>
<stop offset="0.4724" stop-color="#7EC891"/>
<stop offset="0.7155" stop-color="#B5DFC0"/>
<stop offset="0.9856" stop-color="#FBFDFC"/>
<stop offset="1" stop-color="white"/>
</radialGradient>
<radialGradient id="paint1_radial_0_373" cx="0" cy="0" r="1" gradientUnits="userSpaceOnUse" gradientTransform="translate(181.22 231.282) rotate(-60) scale(57.9824 168.691)">
<stop stop-color="#34A853"/>
<stop offset="0.1004" stop-color="#3DAC5B"/>
<stop offset="0.2647" stop-color="#56B66F"/>
<stop offset="0.4724" stop-color="#7EC891"/>
<stop offset="0.7155" stop-color="#B5DFC0"/>
<stop offset="0.9856" stop-color="#FBFDFC"/>
<stop offset="1" stop-color="white"/>
</radialGradient>
<radialGradient id="paint2_radial_0_373" cx="0" cy="0" r="1" gradientUnits="userSpaceOnUse" gradientTransform="translate(144.659 294.608) rotate(-60) scale(57.9823 168.691)">
<stop stop-color="#34A853"/>
<stop offset="0.1004" stop-color="#3DAC5B"/>
<stop offset="0.2647" stop-color="#56B66F"/>
<stop offset="0.4724" stop-color="#7EC891"/>
<stop offset="0.7155" stop-color="#B5DFC0"/>
<stop offset="0.9856" stop-color="#FBFDFC"/>
<stop offset="1" stop-color="white"/>
</radialGradient>
<radialGradient id="paint3_radial_0_373" cx="0" cy="0" r="1" gradientUnits="userSpaceOnUse" gradientTransform="translate(217.782 167.957) rotate(-60) scale(57.9824 168.691)">
<stop stop-color="#34A853"/>
<stop offset="0.1004" stop-color="#3DAC5B"/>
<stop offset="0.2647" stop-color="#56B66F"/>
<stop offset="0.4724" stop-color="#7EC891"/>
<stop offset="0.7155" stop-color="#B5DFC0"/>
<stop offset="0.9856" stop-color="#FBFDFC"/>
<stop offset="1" stop-color="white"/>
</radialGradient>
<radialGradient id="paint4_radial_0_373" cx="0" cy="0" r="1" gradientUnits="userSpaceOnUse" gradientTransform="translate(181.22 231.282) rotate(-60) scale(57.9824 168.691)">
<stop stop-color="#34A853"/>
<stop offset="0.1004" stop-color="#3DAC5B"/>
<stop offset="0.2647" stop-color="#56B66F"/>
<stop offset="0.4724" stop-color="#7EC891"/>
<stop offset="0.7155" stop-color="#B5DFC0"/>
<stop offset="0.9856" stop-color="#FBFDFC"/>
<stop offset="1" stop-color="white"/>
</radialGradient>
<radialGradient id="paint5_radial_0_373" cx="0" cy="0" r="1" gradientUnits="userSpaceOnUse" gradientTransform="translate(144.659 294.608) rotate(-60) scale(57.9823 168.691)">
<stop stop-color="#34A853"/>
<stop offset="0.1004" stop-color="#3DAC5B"/>
<stop offset="0.2647" stop-color="#56B66F"/>
<stop offset="0.4724" stop-color="#7EC891"/>
<stop offset="0.7155" stop-color="#B5DFC0"/>
<stop offset="0.9856" stop-color="#FBFDFC"/>
<stop offset="1" stop-color="white"/>
</radialGradient>
</defs>
</svg>
