<svg width="150" height="309" viewBox="0 0 150 309" fill="none" xmlns="http://www.w3.org/2000/svg">
<path d="M154.58 0C69.2069 0 0 69.1298 0 154.423C0 239.717 69.2069 308.847 154.58 308.847C239.953 308.847 309.16 239.717 309.16 154.423C309.16 69.1298 239.953 0 154.58 0ZM154.58 222.718C115.768 222.718 84.3042 192.127 84.3042 154.423C84.3042 116.686 115.768 86.1284 154.58 86.1284C193.392 86.1284 224.856 116.719 224.856 154.423C224.856 192.161 193.392 222.718 154.58 222.718Z" fill="url(#paint0_radial_0_384)"/>
<path d="M154.58 0C69.2069 0 0 69.1298 0 154.423C0 239.717 69.2069 308.847 154.58 308.847C239.953 308.847 309.16 239.717 309.16 154.423C309.16 69.1298 239.953 0 154.58 0ZM154.58 222.718C115.768 222.718 84.3042 192.127 84.3042 154.423C84.3042 116.686 115.768 86.1284 154.58 86.1284C193.392 86.1284 224.856 116.719 224.856 154.423C224.856 192.161 193.392 222.718 154.58 222.718Z" fill="url(#paint1_radial_0_384)"/>
<defs>
<radialGradient id="paint0_radial_0_384" cx="0" cy="0" r="1" gradientUnits="userSpaceOnUse" gradientTransform="translate(154.582 154.424) scale(179.349 179.322)">
<stop offset="0.25" stop-color="#F9B00F"/>
<stop offset="0.668269" stop-color="#FCD887"/>
<stop offset="1" stop-color="white"/>
</radialGradient>
<radialGradient id="paint1_radial_0_384" cx="0" cy="0" r="1" gradientUnits="userSpaceOnUse" gradientTransform="translate(154.582 154.424) scale(179.349 179.322)">
<stop offset="0.25" stop-color="#F9B00F"/>
<stop offset="0.668269" stop-color="#FCD887"/>
<stop offset="1" stop-color="white"/>
</radialGradient>
</defs>
</svg>
